<?xml version="1.0" encoding="UTF-8"?>
<svg width="24px" height="24px" viewBox="0 0 24 24" version="1.1" xmlns="http://www.w3.org/2000/svg" xmlns:xlink="http://www.w3.org/1999/xlink">
    <title>Group 4</title>
    <g id="Design-System" stroke="none" stroke-width="1" fill="none" fill-rule="evenodd">
        <g id="Artboard" transform="translate(-66.000000, -281.000000)">
            <g id="Group-4" transform="translate(66.000000, 281.000000)">
                <rect id="Rectangle" x="0" y="0" width="24" height="24"></rect>
                <g id="icons8-fire" transform="translate(7.000000, 6.000000)" fill="#000000" fill-rule="nonzero">
                    <path d="M5.40083997,0.671875022 C7.56137284,2.82654169 10.7981651,6.71288889 10.7981651,9.77777778 C10.7981651,12.7182222 8.37577676,15.1111111 5.39908257,15.1111111 C2.42238838,15.1111111 0,12.7182222 0,9.77777778 C0,6.72355556 3.23940734,2.83098613 5.40083997,0.671875022 Z M5.39908257,15.1111111 C6.8901292,15.1111111 8.09862385,13.9173333 8.09862385,12.4444444 C8.09862385,9.77777778 5.39908257,7.11111111 5.39908257,7.11111111 C5.39908257,7.11111111 2.69954128,9.77777778 2.69954128,12.4444444 C2.69954128,13.9173333 3.90803593,15.1111111 5.39908257,15.1111111 Z" id="Shape"></path>
                </g>
            </g>
        </g>
    </g>
</svg>