<?xml version="1.0" encoding="UTF-8"?>
<svg width="96px" height="56px" viewBox="0 0 96 56" version="1.1" xmlns="http://www.w3.org/2000/svg" xmlns:xlink="http://www.w3.org/1999/xlink">
    <title>Icons/SourceType/Debug</title>
    <defs>
        <rect id="path-1" x="0" y="0" width="96" height="56" rx="12"></rect>
    </defs>
    <g id="Icons/SourceType/Debug" stroke="none" stroke-width="1" fill="none" fill-rule="evenodd">
        <mask id="mask-2" fill="white">
            <use xlink:href="#path-1"></use>
        </mask>
        <g id="Rectangle"></g>
        <g id="icons8-hammer" mask="url(#mask-2)" fill-rule="nonzero">
            <g transform="translate(37.000000, 3.000000)" id="Path">
                <polygon fill="#FFC107" points="30.3814768 24 0 55.1444356 10.6690636 66 41 34.6185215"></polygon>
                <path d="M68,32.3845184 L59.5,23.8526729 C58.0652,25.1845481 55.8535,24.4904723 55.3333,23.9447616 L53.3562,21.8881145 C53.8067,21.2179135 54.0583,20.4283384 54.0549,19.5944243 C54.0583,18.518351 53.6622,17.5121969 52.9363,16.7618447 L47.7462,11.3473715 C47.719,11.3166753 47.6561,11.2603989 47.6034,11.2160599 L46.512,10.0751835 C44.2561,7.72521688 42.1498,5.52702603 41.6143,4.97278861 C37.0413,0.199525469 20.3541,0.00682138355 18.4671,0 C18.4654,0 18.4637,0 18.462,0 C17.8109,0 17,0 17,0 L17,3.37658486 C17,3.37658486 17.9911,3.66308297 17.9401,3.66308297 C18.2053,3.77051976 23.256,5.27122414 29.4032,11.9902869 C32.1606,15.0019278 35.0455,18.9975532 33.099,20.9876919 C33.0548,21.0371469 32.8236,21.2946541 31.9753,22.181434 C31.8954,22.2649959 31.8546,22.3417365 31.79,22.4252984 L29.3998,24.9151034 L40.3903,35.5257656 L43.316,32.4783124 C43.3381,32.4595536 43.3432,32.4322681 43.3602,32.411804 L44.9089,30.7934307 L44.9089,30.7934307 C44.9786,30.8667606 45.3509,31.2538741 46.8418,32.8057389 C47.3994,33.3889672 48.0267,35.5308816 46.3267,37.0776303 C46.5953,37.3607177 54.8267,46 54.8267,46 L68,32.3845184 Z" fill="#78909C"></path>
                <path d="M59,24.0615592 C57.5248194,25.4652887 55.2508739,24.7337677 54.7160336,24.158616 L52.6920298,22 L44,31.3821613 C44.0804008,31.4666367 44.4684223,31.880027 45.9838033,33.497641 C46.5570962,34.1123343 47.2020508,36.3698045 45.4542065,38 L59,24.0615592 Z" fill="#546E7A"></path>
            </g>
        </g>
    </g>
</svg>