<?xml version="1.0" encoding="UTF-8"?>
<svg width="24px" height="24px" viewBox="0 0 24 24" version="1.1" xmlns="http://www.w3.org/2000/svg" xmlns:xlink="http://www.w3.org/1999/xlink">
    <title>icons8-settings</title>
    <defs>
        <filter id="filter-1">
            <feColorMatrix in="SourceGraphic" type="matrix" values="0 0 0 0 0.000000 0 0 0 0 0.000000 0 0 0 0 0.000000 0 0 0 1.000000 0"></feColorMatrix>
        </filter>
    </defs>
    <g id="Design-System" stroke="none" stroke-width="1" fill="none" fill-rule="evenodd">
        <g id="icons8-settings" transform="translate(-241.000000, -281.000000)" filter="url(#filter-1)">
            <g transform="translate(241.000000, 281.000000)">
                <path d="M9.15023844,0 L8.55166926,3.028125 C7.54537253,3.40110432 6.62129698,3.92391684 5.81160569,4.57734372 L2.85214626,3.57421872 L0,8.42578128 L2.37042919,10.4507808 C2.2793041,11.000652 2.23211447,11.510214 2.23211447,12 C2.23211447,12.4905216 2.28071837,12.9991512 2.37042919,13.5492192 L2.37042919,13.5515628 L0,15.5765628 L2.85214626,20.4257808 L5.80922099,19.425 C6.61898798,20.0787828 7.54515385,20.5986804 8.55166926,20.9718744 L9.15023844,24 L14.8497611,24 L15.448331,20.9718744 C16.4552852,20.5986516 17.3783235,20.076684 18.1883938,19.4226564 L21.1478543,20.4257808 L23.9976154,15.5765628 L21.6295711,13.5492192 C21.7206957,12.999348 21.7678855,12.489786 21.7678855,12 C21.7678855,11.5109484 21.7204258,11.0020488 21.6295711,10.4531256 L21.6295711,10.4507808 L24,8.42343744 L21.1478543,3.57421872 L18.1907784,4.575 C17.3810134,3.92121756 16.4548457,3.40131924 15.448331,3.028125 L14.8497611,0 L9.15023844,0 Z M11.1629569,2.4 L12.8370431,2.4 L13.311606,4.8 L14.5850563,5.27343744 C15.352646,5.557764 16.0422831,5.94810552 16.6406992,6.43125 L17.694753,7.27968744 L20.0413361,6.4875 L20.8783779,7.91015628 L19.0039744,9.51328128 L19.2186005,10.8328128 L19.2186005,10.8351564 C19.2932626,11.285082 19.3259141,11.6625216 19.3259141,12 C19.3259141,12.3374784 19.2932638,12.7148616 19.2186005,13.1648436 L19.0015898,14.4843744 L20.8759933,16.0875 L20.0389503,17.5125 L17.694753,16.7179692 L16.6383146,17.56875 C16.0398986,18.051894 15.352646,18.442236 14.5850563,18.7265628 L14.5826704,18.7265628 L13.3092214,19.2 L12.8346585,21.6 L11.1629569,21.6 L10.688394,19.2 L9.41494436,18.7265628 C8.64735241,18.442236 7.9577171,18.051894 7.35930054,17.56875 L6.30524642,16.7203128 L3.95866455,17.5125 L3.12162159,16.0898436 L4.99841017,14.4843744 L4.78139902,13.1695308 L4.78139902,13.1671872 C4.7078074,12.7153056 4.67408585,12.3368076 4.67408585,12 C4.67408585,11.6625216 4.70673745,11.2851384 4.78139902,10.8351564 L4.99841017,9.515625 L3.12162159,7.9125 L3.95866455,6.4875 L6.30524642,7.28203128 L7.35930054,6.43125 C7.9577171,5.94810552 8.64735241,5.55776412 9.41494436,5.27343744 L10.688394,4.8 L11.1629569,2.4 Z M12,7.2 C9.3180766,7.2 7.11605723,9.36417216 7.11605723,12 C7.11605723,14.6358276 9.3180766,16.8 12,16.8 C14.6819232,16.8 16.8839428,14.6358276 16.8839428,12 C16.8839428,9.36417216 14.6819232,7.2 12,7.2 Z M12,9.6 C13.3570975,9.6 14.4419714,10.6662276 14.4419714,12 C14.4419714,13.3337724 13.3570975,14.4 12,14.4 C10.6429025,14.4 9.55802862,13.3337724 9.55802862,12 C9.55802862,10.6662276 10.6429025,9.6 12,9.6 Z" id="Shape" fill="#FFFFFF" fill-rule="nonzero"></path>
            </g>
        </g>
    </g>
</svg>