<?xml version="1.0" encoding="UTF-8"?>
<svg width="24px" height="24px" viewBox="0 0 24 24" version="1.1" xmlns="http://www.w3.org/2000/svg" xmlns:xlink="http://www.w3.org/1999/xlink">
    <title>Icons/Settings</title>
    <g id="Icons/Settings" stroke="none" stroke-width="1" fill="none" fill-rule="evenodd">
        <path d="M9.6251987,2 L9.12639105,4.5234375 C8.28781044,4.8342536 7.51774748,5.2699307 6.84300474,5.8144531 L4.37678855,4.9785156 L2,9.0214844 L3.97535766,10.708984 C3.89942008,11.16721 3.86009539,11.591845 3.86009539,12 C3.86009539,12.408768 3.90059864,12.832626 3.97535766,13.291016 L3.97535766,13.292969 L2,14.980469 L4.37678855,19.021484 L6.84101749,18.1875 C7.51582331,18.732319 8.28762821,19.165567 9.12639105,19.476562 L9.6251987,22 L14.3748009,22 L14.8736092,19.476562 C15.7127377,19.165543 16.4819363,18.73057 17.1569948,18.185547 L19.623212,19.021484 L21.9980128,14.980469 L20.0246425,13.291016 C20.1005797,12.83279 20.1399046,12.408155 20.1399046,12 C20.1399046,11.592457 20.1003548,11.168374 20.0246425,10.710938 L20.0246425,10.708984 L22,9.0195312 L19.623212,4.9785156 L17.158982,5.8125 C16.4841778,5.2676813 15.7123714,4.8344327 14.8736092,4.5234375 L14.3748009,2 L9.6251987,2 Z M11.2457696,4 L12.7542308,4 L13.1818431,6 L14.3293052,6.3945312 C15.0209538,6.63147 15.642362,6.9567546 16.181574,7.359375 L17.1313455,8.0664062 L19.2457705,7.40625 L20,8.5917969 L18.3110397,9.9277344 L18.5044319,11.027344 L18.5044319,11.029297 C18.5717073,11.404235 18.6011285,11.718768 18.6011285,12 C18.6011285,12.281232 18.5717084,12.595718 18.5044319,12.970703 L18.3088911,14.070312 L19.9978513,15.40625 L19.2436207,16.59375 L17.1313455,15.931641 L16.1794254,16.640625 C15.6402133,17.043245 15.0209538,17.36853 14.3293052,17.605469 L14.3271554,17.605469 L13.1796945,18 L12.7520822,20 L11.2457696,20 L10.8181573,18 L9.67069584,17.605469 C8.97904524,17.36853 8.35763868,17.043245 7.81842617,16.640625 L6.86865441,15.933594 L4.7542305,16.59375 L4,15.408203 L5.69110939,14.070312 L5.49556813,12.974609 L5.49556813,12.972656 C5.42925726,12.596088 5.39887194,12.280673 5.39887194,12 C5.39887194,11.718768 5.42829317,11.404282 5.49556813,11.029297 L5.69110939,9.9296875 L4,8.59375 L4.7542305,7.40625 L6.86865441,8.0683594 L7.81842617,7.359375 C8.35763868,6.9567546 8.97904524,6.6314701 9.67069584,6.3945312 L10.8181573,6 L11.2457696,4 Z M12,8 C9.8034768,8 8,9.8034768 8,12 C8,14.196523 9.8034768,16 12,16 C14.196523,16 16,14.196523 16,12 C16,9.8034768 14.196523,8 12,8 Z M12,10 C13.111477,10 14,10.888523 14,12 C14,13.111477 13.111477,14 12,14 C10.888523,14 10,13.111477 10,12 C10,10.888523 10.888523,10 12,10 Z" id="Shape" fill="#000000"></path>
    </g>
</svg>