<?xml version="1.0" encoding="UTF-8"?>
<svg width="24px" height="24px" viewBox="0 0 24 24" version="1.1" xmlns="http://www.w3.org/2000/svg" xmlns:xlink="http://www.w3.org/1999/xlink">
    <title>Group 3</title>
    <defs>
        <filter id="filter-1">
            <feColorMatrix in="SourceGraphic" type="matrix" values="0 0 0 0 0.000000 0 0 0 0 0.000000 0 0 0 0 0.000000 0 0 0 1.000000 0"></feColorMatrix>
        </filter>
    </defs>
    <g id="Design-System" stroke="none" stroke-width="1" fill="none" fill-rule="evenodd">
        <g id="Artboard" transform="translate(-67.000000, -322.000000)">
            <g id="Group-3" transform="translate(67.000000, 322.000000)">
                <rect id="Rectangle" x="0" y="0" width="24" height="24"></rect>
                <g filter="url(#filter-1)" id="icons8-fire">
                    <g transform="translate(2.000000, 1.000000)">
                        <path d="M10,0 C10,0 20,7.33333333 20,13.6190476 C20,18.2474286 15.5225,22 10,22 L10,22 L10,22 C14.0163636,22 17.2727273,18.7165 17.2727273,14.6666667 C17.2727273,9.16666667 10,2.75 10,2.75 C10,2.75 2.72727273,9.16666667 2.72727273,14.6666667 C2.72727273,18.7148126 5.98092329,21.9972636 9.99497994,21.9999983 C4.47425014,21.9972757 0,18.2457486 0,13.6190476 C0,7.33333333 10,0 10,0 Z M12.7272727,17.4166667 C12.7272727,14.6666667 10,11.9166667 10,11.9166667 L9.97279944,11.9446536 C9.68858131,12.2401961 7.27272727,14.8284314 7.27272727,17.4166667 C7.27272727,18.9355833 8.49363636,20.1666667 10,20.1666667 L10,20.1666667 C6.99272727,20.1666667 4.54545455,17.699 4.54545455,14.6666667 C4.54545455,11.517 7.81813918,7.50278778 10.0017755,5.27620445 C12.1845027,7.49820445 15.4545455,11.506 15.4545455,14.6666667 C15.4545455,17.6979915 13.0089004,20.1650251 10.0030004,20.1666658 C11.5063636,20.1666667 12.7272727,18.9355833 12.7272727,17.4166667 Z" id="Shape" fill="#000000" fill-rule="nonzero"></path>
                    </g>
                </g>
            </g>
        </g>
    </g>
</svg>