<?xml version="1.0" encoding="UTF-8"?>
<svg width="24px" height="24px" viewBox="0 0 24 24" version="1.1" xmlns="http://www.w3.org/2000/svg" xmlns:xlink="http://www.w3.org/1999/xlink">
    <title>Group 3</title>
    <defs>
        <filter id="filter-1">
            <feColorMatrix in="SourceGraphic" type="matrix" values="0 0 0 0 1.000000 0 0 0 0 1.000000 0 0 0 0 1.000000 0 0 0 1.000000 0"></feColorMatrix>
        </filter>
    </defs>
    <g id="Concept" stroke="none" stroke-width="1" fill="none" fill-rule="evenodd">
        <g id="Group-3" transform="translate(-106.000000, -558.000000)" filter="url(#filter-1)">
            <g transform="translate(96.000000, 558.000000)">
                <g id="icons8-hourglass" transform="translate(10.000000, 0.000000)" fill="#000000" fill-rule="nonzero">
                    <path d="M5,3 L5,5 L7,5 L7,6.34375 C7,7.6692803 7.526238,8.9415505 8.4648438,9.8789062 L10.585938,12 L8.4648438,14.121094 C7.526238,15.05845 7,16.33072 7,17.65625 L7,19 L5,19 L5,21 L19,21 L19,19 L17,19 L17,17.65625 C17,16.330841 16.472461,15.058398 15.535156,14.121094 L13.414062,12 L15.535156,9.8789062 C16.473212,8.9408509 17,7.6692803 17,6.34375 L17,5 L19,5 L19,3 L5,3 Z M9,5 L15,5 L15,6.34375 C15,6.9381281 14.823391,7.5123753 14.5,8 L9.5,8 C9.1760711,7.5127919 9,6.9387149 9,6.34375 L9,5 Z M12,13.414062 L14.121094,15.535156 C14.683789,16.097852 15,16.861659 15,17.65625 L15,19 L13.802734,19 C13.309819,17.674682 12,17 12,17 C12,17 10.690181,17.674682 10.197266,19 L9,19 L9,17.65625 C9,16.85978 9.315512,16.099754 9.8789062,15.537109 L12,13.414062 Z" id="Shape"></path>
                </g>
            </g>
        </g>
    </g>
</svg>