<?xml version="1.0" encoding="UTF-8"?>
<svg width="24px" height="24px" viewBox="0 0 24 24" version="1.1" xmlns="http://www.w3.org/2000/svg" xmlns:xlink="http://www.w3.org/1999/xlink">
    <title>icons8-add</title>
    <g id="Design-System" stroke="none" stroke-width="1" fill="none" fill-rule="evenodd">
        <g id="Artboard" transform="translate(-241.000000, -245.000000)" fill="#000000" fill-rule="nonzero">
            <g id="icons8-add" transform="translate(241.000000, 245.000000)">
                <path d="M12,0 C5.3832,0 0,5.3832 0,12 C0,18.6168 5.3832,24 12,24 C18.6168,24 24,18.6168 24,12 C24,5.3832 18.6168,0 12,0 Z M12,2.4 C17.2932,2.4 21.6,6.7068 21.6,12 C21.6,17.2932 17.2932,21.6 12,21.6 C6.7068,21.6 2.4,17.2932 2.4,12 C2.4,6.7068 6.7068,2.4 12,2.4 Z M10.8,7.2 L10.8,10.8 L7.2,10.8 L7.2,13.2 L10.8,13.2 L10.8,16.8 L13.2,16.8 L13.2,13.2 L16.8,13.2 L16.8,10.8 L13.2,10.8 L13.2,7.2 L10.8,7.2 Z" id="Shape"></path>
            </g>
        </g>
    </g>
</svg>