<?xml version="1.0" encoding="UTF-8"?>
<svg width="13px" height="10px" viewBox="0 0 13 10" version="1.1" xmlns="http://www.w3.org/2000/svg" xmlns:xlink="http://www.w3.org/1999/xlink">
    <title>Icons/Debug</title>
    <g id="Icons/Debug" stroke="none" stroke-width="1" fill="none" fill-rule="evenodd">
        <path d="M5,0 C6.54938389,1.75719784 7.4713231,3.13089884 7.02895828,3.63309706 L8.317598,5.09457331 C8.49073578,5.2909329 8.77106046,5.2909329 8.94375544,5.09457331 L9.16083523,4.84837807 L9.70742546,5.46926004 L9.4903461,5.71447449 C9.31720832,5.91083407 9.31720832,6.22875681 9.4903461,6.42461419 L9.8319651,6.81205224 C10.0529261,7.06264925 10.4114205,7.06264925 10.6328243,6.81205224 L11.8341132,5.44964317 C12.0550742,5.19904615 12.055517,4.79246933 11.8341132,4.54137012 L11.4924937,4.15393207 C11.3202415,3.95757249 11.0403389,3.95709389 10.8672011,4.15295127 L10.6336891,4.4168013 L10.0870985,3.79690013 L10.3197456,3.5330501 C10.4928834,3.33669032 10.4928834,3.01876733 10.3197456,2.82290994 L9.03197113,1.36143409 C7.81602138,-0.0176027697 5.93343848,0 5,0 Z M7.22613645,3 L2.18404592,8.04535403 C1.93865139,8.28943386 1.93865134,8.68514402 2.18404592,8.9302559 L3.07097759,9.81616609 C3.31533888,10.061278 3.71253902,10.061278 3.95690031,9.81616609 L9,4.77081258 L7.22613645,3 Z" id="Shape" fill="#000000" fill-rule="nonzero"></path>
    </g>
</svg>