<?xml version="1.0" encoding="UTF-8"?>
<svg width="24px" height="24px" viewBox="0 0 24 24" version="1.1" xmlns="http://www.w3.org/2000/svg" xmlns:xlink="http://www.w3.org/1999/xlink">
    <title>Icons/Add</title>
    <g id="Icons/Add" stroke="none" stroke-width="1" fill="none" fill-rule="evenodd">
        <path d="M12,2 C6.486,2 2,6.486 2,12 C2,17.514 6.486,22 12,22 C17.514,22 22,17.514 22,12 C22,6.486 17.514,2 12,2 Z M12,4 C16.411,4 20,7.589 20,12 C20,16.411 16.411,20 12,20 C7.589,20 4,16.411 4,12 C4,7.589 7.589,4 12,4 Z M11,8 L11,11 L8,11 L8,13 L11,13 L11,16 L13,16 L13,13 L16,13 L16,11 L13,11 L13,8 L11,8 Z" id="Shape" fill="#000000"></path>
    </g>
</svg>